<svg width="130" height="211" viewBox="0 0 130 211" fill="none" xmlns="http://www.w3.org/2000/svg">
<g clip-path="url(#clip0_774_20)">
<path d="M65.5 82.2361L45.5 42.2361L65.5 2.23608L85.5 42.2361L65.5 82.2361ZM65.5 18.2361L53.5 42.2361L65.5 66.2361L77.5 42.2361L65.5 18.2361Z" fill="#C42226" stroke="white" stroke-width="2" stroke-miterlimit="10"/>
<path d="M65.5 42.2361L41.5 90.2361H89.5L65.5 42.2361Z" fill="#FFD300" stroke="white" stroke-width="2" stroke-miterlimit="10"/>
<path d="M65.5 47.2361C68.2614 47.2361 70.5 44.9975 70.5 42.2361C70.5 39.4747 68.2614 37.2361 65.5 37.2361C62.7386 37.2361 60.5 39.4747 60.5 42.2361C60.5 44.9975 62.7386 47.2361 65.5 47.2361Z" fill="#C42226" stroke="white" stroke-width="2" stroke-miterlimit="10"/>
<path d="M65.5 98.2361V46.2361" stroke="white" stroke-width="2"/>
<path d="M65.0001 209.736C56.4423 209.752 47.9692 208.042 40.0881 204.706C36.2825 203.095 32.6418 201.119 29.2172 198.806C25.8183 196.508 22.6466 193.891 19.7451 190.991C16.8447 188.089 14.2278 184.918 11.9302 181.519C9.61714 178.094 7.64122 174.454 6.03015 170.648C2.69451 162.767 0.983663 154.294 1.00012 145.736C0.983481 137.179 2.69401 128.706 6.02917 120.825C7.64024 117.019 9.61604 113.379 11.9291 109.954C14.2267 106.555 16.8437 103.383 19.7441 100.482C22.6456 97.5815 25.8172 94.9647 29.2161 92.667C32.6408 90.354 36.2815 88.3781 40.0872 86.767C47.9684 83.4309 56.4419 81.7197 65.0001 81.736C73.5579 81.7192 82.031 83.4297 89.9121 86.765C93.7177 88.3761 97.3584 90.352 100.783 92.665C104.182 94.9626 107.354 97.5795 110.255 100.48C113.156 103.381 115.772 106.553 118.07 109.952C120.383 113.377 122.359 117.017 123.97 120.823C127.306 128.704 129.017 137.178 129 145.736C129.017 154.294 127.306 162.767 123.971 170.648C122.36 174.454 120.384 178.094 118.071 181.519C115.774 184.918 113.157 188.09 110.256 190.991C107.355 193.891 104.183 196.508 100.784 198.806C97.3595 201.119 93.7187 203.095 89.9131 204.706C82.0318 208.042 73.5583 209.753 65.0001 209.736ZM65.0001 93.736C58.0469 93.7223 51.1625 95.112 44.7592 97.822C38.5803 100.432 32.9667 104.217 28.2301 108.966C23.4808 113.703 19.6962 119.316 17.0862 125.495C14.3762 131.898 12.9864 138.783 13.0001 145.736C12.9867 152.689 14.3769 159.574 17.0872 165.977C19.6972 172.156 23.4818 177.769 28.2311 182.506C32.9677 187.255 38.5812 191.04 44.7601 193.65C51.1632 196.36 58.0473 197.75 65.0001 197.736C71.9533 197.75 78.8377 196.36 85.2411 193.65C91.42 191.04 97.0335 187.255 101.77 182.506C106.519 177.769 110.304 172.156 112.914 165.977C115.624 159.574 117.014 152.689 117 145.736C117.014 138.783 115.624 131.899 112.914 125.496C110.304 119.317 106.519 113.704 101.77 108.967C97.0335 104.218 91.42 100.433 85.2411 97.8229C78.8378 95.1127 71.9534 93.7226 65.0001 93.736Z" fill="#C42226" stroke="white" stroke-width="2" stroke-miterlimit="10"/>
<path d="M65.5 66.2361L57.5 82.2361L65.5 98.2361L73.5 82.2361L65.5 66.2361Z" fill="#93D5FF" stroke="white" stroke-width="2" stroke-miterlimit="10"/>
</g>
<defs>
<clipPath id="clip0_774_20">
<rect width="130" height="210.737" fill="white"/>
</clipPath>
</defs>
</svg>
