<svg width="542" height="554" viewBox="0 0 542 554" fill="none" xmlns="http://www.w3.org/2000/svg">
<path d="M271 546.584C252.724 546.588 234.494 544.751 216.586 541.099C199.214 537.54 182.237 532.27 165.904 525.366C149.849 518.568 134.489 510.231 120.041 500.472C105.703 490.779 92.3222 479.739 80.082 467.503C67.8458 455.263 56.8061 441.882 47.113 427.544C37.3539 413.096 29.0169 397.736 22.219 381.681C15.3152 365.348 10.0455 348.371 6.48707 330.999C2.83447 313.091 0.996123 294.861 1.00001 276.584C0.995525 258.308 2.83313 240.078 6.48499 222.17C10.0435 204.798 15.3132 187.821 22.217 171.488C29.015 155.433 37.3518 140.073 47.111 125.625C56.804 111.287 67.8438 97.9062 80.08 85.666C92.3201 73.4298 105.7 62.39 120.039 52.697C134.486 42.9375 149.845 34.6002 165.9 27.802C182.233 20.8978 199.21 15.6277 216.582 12.069C234.491 8.41694 252.722 6.57932 271 6.58399C289.276 6.57959 307.506 8.41721 325.414 12.069C342.787 15.6275 359.765 20.8975 376.1 27.802C392.155 34.5999 407.515 42.9368 421.963 52.696C436.301 62.3891 449.682 73.4288 461.922 85.665C474.158 97.9052 485.198 111.286 494.891 125.624C504.649 140.071 512.985 155.43 519.782 171.484C526.686 187.817 531.956 204.794 535.515 222.166C539.167 240.075 541.005 258.306 541 276.584C541.004 294.86 539.166 313.09 535.514 330.998C531.956 348.371 526.686 365.349 519.782 381.684C512.984 397.74 504.647 413.099 494.888 427.547C485.195 441.885 474.155 455.266 461.919 467.506C449.679 479.742 436.298 490.782 421.96 500.475C407.513 510.233 392.154 518.569 376.1 525.366C359.767 532.27 342.79 537.54 325.418 541.099C307.509 544.751 289.278 546.589 271 546.584ZM270.5 26.584C253.611 26.58 236.765 28.2783 220.217 31.653C204.165 34.9414 188.477 39.8112 173.384 46.191C158.548 52.4716 144.354 60.1742 131.003 69.191C117.753 78.1482 105.389 88.3498 94.078 99.657C82.77 110.968 72.5677 123.333 63.61 136.584C54.5931 149.935 46.8905 164.129 40.61 178.965C34.2301 194.058 29.3604 209.746 26.072 225.799C22.6961 242.348 20.9969 259.194 21 276.084C20.996 292.973 22.6942 309.819 26.069 326.367C29.3574 342.42 34.2272 358.108 40.6071 373.201C46.8876 388.037 54.5902 402.231 63.6071 415.582C72.5643 428.832 82.7658 441.196 94.073 452.507C105.384 463.815 117.75 474.017 131 482.974C144.351 491.991 158.545 499.693 173.381 505.974C188.474 512.354 204.161 517.223 220.214 520.512C236.763 523.888 253.61 525.587 270.5 525.584C287.389 525.588 304.235 523.89 320.783 520.515C336.836 517.227 352.524 512.357 367.617 505.977C382.453 499.697 396.647 491.994 409.998 482.977C423.248 474.02 435.612 463.818 446.923 452.511C458.231 441.2 468.433 428.835 477.39 415.584C486.407 402.233 494.109 388.039 500.39 373.203C506.77 358.11 511.64 342.422 514.928 326.369C518.304 309.82 520.003 292.973 520 276.084C520.004 259.195 518.306 242.349 514.931 225.801C511.643 209.748 506.773 194.06 500.393 178.967C494.113 164.131 486.41 149.937 477.393 136.586C468.436 123.336 458.234 110.972 446.927 99.661C435.616 88.3537 423.25 78.1521 410 69.195C396.649 60.1782 382.455 52.4755 367.619 46.195C352.526 39.8151 336.838 34.9454 320.785 31.657C304.236 28.2808 287.39 26.5812 270.5 26.584Z" fill="#93D5FF" stroke="white" stroke-width="2" stroke-miterlimit="10"/>
<path d="M275.743 9.84098L283.5 14.084L275.743 18.327L271.5 26.084L267.257 18.327L259.5 14.084L267.257 9.84098L271.5 2.08398L275.743 9.84098Z" fill="#C42226" stroke="white" stroke-width="2" stroke-miterlimit="10"/>
<path d="M271.5 30.084C273.709 30.084 275.5 28.2931 275.5 26.084C275.5 23.8748 273.709 22.084 271.5 22.084C269.291 22.084 267.5 23.8748 267.5 26.084C267.5 28.2931 269.291 30.084 271.5 30.084Z" fill="white" stroke="white" stroke-width="2" stroke-miterlimit="10"/>
<path d="M504.972 146.884L505.165 155.724L497.618 151.117L488.778 151.31L493.385 143.763L493.192 134.923L500.739 139.53L509.579 139.337L504.972 146.884Z" fill="#C42226" stroke="white" stroke-width="2" stroke-miterlimit="10"/>
<path d="M488.779 155.307C490.988 155.307 492.779 153.516 492.779 151.307C492.779 149.098 490.988 147.307 488.779 147.307C486.57 147.307 484.779 149.098 484.779 151.307C484.779 153.516 486.57 155.307 488.779 155.307Z" fill="white" stroke="white" stroke-width="2" stroke-miterlimit="10"/>
<path d="M500.562 413.914L492.997 418.491L493.224 409.652L488.648 402.084L497.487 402.311L505.052 397.734L504.825 406.573L509.402 414.138L500.562 413.914Z" fill="#C42226" stroke="white" stroke-width="2" stroke-miterlimit="10"/>
<path d="M488.648 406.087C490.858 406.087 492.648 404.296 492.648 402.087C492.648 399.878 490.858 398.087 488.648 398.087C486.439 398.087 484.648 399.878 484.648 402.087C484.648 404.296 486.439 406.087 488.648 406.087Z" fill="white" stroke="white" stroke-width="2" stroke-miterlimit="10"/>
<path d="M266.933 543.31L259.192 539.037L266.966 534.824L271.238 527.084L275.451 534.858L283.192 539.131L275.418 543.344L271.146 551.084L266.933 543.31Z" fill="#C42226" stroke="white" stroke-width="2" stroke-miterlimit="10"/>
<path d="M271.238 531.084C273.447 531.084 275.238 529.293 275.238 527.084C275.238 524.875 273.447 523.084 271.238 523.084C269.029 523.084 267.238 524.875 267.238 527.084C267.238 529.293 269.029 531.084 271.238 531.084Z" fill="white" stroke="white" stroke-width="2" stroke-miterlimit="10"/>
<path d="M38.2356 405.384L38.0766 396.544L45.6056 401.18L54.4456 401.021L49.8096 408.55L49.9686 417.39L42.4396 412.754L33.5996 412.913L38.2356 405.384Z" fill="#C42226" stroke="white" stroke-width="2" stroke-miterlimit="10"/>
<path d="M54.4473 405.02C56.6564 405.02 58.4473 403.229 58.4473 401.02C58.4473 398.811 56.6564 397.02 54.4473 397.02C52.2381 397.02 50.4473 398.811 50.4473 401.02C50.4473 403.229 52.2381 405.02 54.4473 405.02Z" fill="white" stroke="white" stroke-width="2" stroke-miterlimit="10"/>
<path d="M43.6798 138.369L51.2618 133.821L50.9998 142.659L55.5478 150.241L46.7098 149.979L39.1278 154.527L39.3898 145.689L34.8418 138.107L43.6798 138.369Z" fill="#C42226" stroke="white" stroke-width="2" stroke-miterlimit="10"/>
<path d="M55.5488 154.242C57.758 154.242 59.5488 152.451 59.5488 150.242C59.5488 148.033 57.758 146.242 55.5488 146.242C53.3397 146.242 51.5488 148.033 51.5488 150.242C51.5488 152.451 53.3397 154.242 55.5488 154.242Z" fill="white" stroke="white" stroke-width="2" stroke-miterlimit="10"/>
</svg>
