<svg width="250" height="82" viewBox="0 0 250 82" fill="none" xmlns="http://www.w3.org/2000/svg">
<path d="M30.9486 59.8144C30.9486 59.8144 31.8802 60.6781 31.7102 61.1677C31.3158 62.2897 29.5478 62.8133 28.3985 62.5005C26.5625 62.0041 24.8896 59.896 24.9032 57.9988C24.9304 55.2107 27.7798 52.953 30.1462 51.4774C32.5807 49.961 35.6816 49.5461 38.5513 49.5937C41.6726 49.6481 45.0114 50.2398 47.6295 51.9466C49.0848 52.8986 50.2884 54.4015 50.8528 56.0471C51.1724 56.9788 50.8528 59.0052 50.8528 59.0052C50.8528 59.0052 53.4233 55.4623 54.3481 53.4903C55.4566 51.1442 57.0818 48.6689 56.769 46.0984C56.6261 44.922 55.8442 43.7728 54.8854 43.0724C51.8049 40.8283 47.6023 40.4407 43.7942 40.3183C39.8569 40.1891 35.8584 41.0255 32.1659 42.3991C29.6498 43.3376 27.1881 44.6568 25.2432 46.4997C23.0468 48.5737 20.9456 51.1034 20.2043 54.0275C19.7215 55.9247 19.8235 58.1484 20.7415 59.8756C21.5711 61.4397 23.2032 62.5753 24.842 63.2349C26.4469 63.881 28.3713 64.1734 30.017 63.6362C31.105 63.2825 32.6011 62.5617 32.6419 61.4193C32.6827 59.7464 30.9486 59.8144 30.9486 59.8144Z" fill="white"/>
<path d="M30.037 60.8075C30.037 60.8075 29.7922 60.0594 30.003 59.7874C30.343 59.3522 31.0978 59.2366 31.6214 59.427C32.3694 59.7126 33.0426 60.5627 33.0426 61.3583C33.0426 62.3851 32.1451 63.3779 31.227 63.8471C29.2278 64.8604 26.6233 64.5748 24.5016 63.8471C22.7064 63.2283 20.9451 61.9975 19.9999 60.3518C18.6263 57.9582 18.3067 54.8369 18.9255 52.1508C19.5579 49.4035 21.5979 47.1051 23.5632 45.0922C25.6781 42.9229 28.2349 41.0869 31.023 39.9172C34.2191 38.5776 37.7824 38.2172 41.2437 37.9656C44.2222 37.7548 47.2551 37.816 50.186 38.3668C52.0221 38.7136 53.8853 39.2304 55.4969 40.1825C56.1293 40.5565 57.1358 41.6649 57.1358 41.6649C57.1358 41.6649 56.6937 36.0071 55.8301 33.3279C55.0821 31.009 54.2933 28.4929 52.5388 26.8065C51.2944 25.6096 49.5195 25.018 47.8331 24.6576C44.6302 23.9708 41.2369 24.1408 38.0204 24.7188C34.2599 25.3988 30.6286 26.8609 27.2557 28.6697C24.1005 30.3562 21.1287 32.4846 18.5922 35.0075C16.5114 37.0748 14.5529 39.3936 13.3493 42.0661C12.1389 44.759 11.5133 47.7851 11.5337 50.7364C11.5473 53.1028 12.0368 55.5373 13.0773 57.659C14.0497 59.6446 15.6138 61.3515 17.3139 62.7659C18.7963 63.9967 20.5371 64.9556 22.3527 65.5812C24.0664 66.166 25.9229 66.4992 27.7317 66.3972C29.8466 66.2748 32.2607 66.1116 33.8791 64.738C34.8244 63.9356 35.5044 62.5823 35.4092 61.3515C35.3412 60.4878 34.7223 59.631 33.9811 59.1686C33.1718 58.6654 32.0703 58.3594 31.1522 58.6042C30.3022 58.8354 29.5881 59.291 29.4793 59.9982C29.4249 60.345 30.0438 60.8075 30.037 60.8075Z" fill="white"/>
<path d="M30.3224 61.4056C30.3224 61.4056 29.0168 61.1404 28.6768 60.6576C28.1872 59.9504 28.2212 58.9576 28.704 58.2503C29.4928 57.0807 31.1793 56.6319 32.5869 56.5775C34.967 56.4823 37.8774 56.9991 39.3667 58.8624C40.6043 60.4196 40.8559 63.0241 39.9583 64.7989C39.0539 66.5806 36.7146 67.2742 34.797 67.8454C31.8049 68.743 28.5204 68.7906 25.4331 68.301C22.2438 67.7978 19.1293 66.5602 16.3752 64.8737C13.3356 63.0173 10.5543 60.5896 8.4598 57.7131C6.20893 54.6326 4.52924 51.0149 3.74042 47.2884C3.0264 43.9087 3.12163 40.3182 3.81525 36.9317C4.60407 33.0964 6.13407 29.4515 8.31013 26.1942C9.96938 23.7189 12.1999 21.6041 14.6275 19.8768C16.8104 18.3264 19.3197 17.2315 21.863 16.3747C23.9234 15.6811 26.0859 15.1983 28.262 15.0827C30.9617 14.9399 33.6953 15.2595 36.3338 15.8443C38.5439 16.3339 40.7267 17.0683 42.7327 18.1292C45.0924 19.3804 49.2065 22.8485 49.2065 22.8485C49.2065 22.8485 40.8695 22.0529 36.7962 22.7737C31.9952 23.6237 27.2556 25.3442 23.0938 27.8738C19.993 29.7575 17.2592 32.3212 15.0219 35.1841C13.2335 37.4757 11.8123 40.1074 10.9147 42.8751C10.0034 45.6836 9.52059 48.6893 9.6974 51.6337C9.8198 53.6262 10.3366 55.6323 11.2206 57.4207C12.0979 59.2092 13.3831 60.8276 14.8723 62.1401C16.8172 63.8401 19.0613 65.1593 21.4957 66.023C23.4542 66.7166 25.5827 66.9614 27.6636 66.9342C29.4384 66.9138 31.3357 66.8322 32.9201 66.023C34.2461 65.343 35.6673 64.3229 36.1162 62.9017C36.4834 61.7457 36.259 60.2428 35.4702 59.3248C34.6882 58.4203 33.2669 58.1823 32.0701 58.1823C31.1928 58.1823 30.2068 58.4135 29.5744 59.0188C29.2208 59.3588 29.0372 59.794 29.1664 60.2632C29.282 60.7936 30.3224 61.4124 30.3224 61.4056Z" fill="white"/>
<path d="M15.9531 76.4748C15.9531 75.8764 15.8987 75.3528 15.7831 74.8972C15.6675 74.4348 15.4498 73.9928 15.1234 73.5847C14.797 73.1699 14.3958 72.8571 13.913 72.6395C13.437 72.4219 12.9337 72.3131 12.3897 72.3131C11.2405 72.3131 10.336 72.7143 9.66962 73.5235C9.01 74.3192 8.68363 75.3936 8.68363 76.7332C8.68363 78.0253 9.03727 79.0385 9.73769 79.7729C10.3973 80.4598 11.2405 80.7998 12.2742 80.7998C13.5118 80.7998 14.4706 80.2625 15.1574 79.1949C15.681 78.3517 15.9531 77.4541 15.9531 76.4748ZM12.2265 81.2282C10.7645 81.2282 9.58807 80.8066 8.69724 79.9633C7.82001 79.1133 7.38477 77.9777 7.38477 76.57C7.38477 75.1556 7.85403 74.0132 8.79245 73.1359C9.69688 72.2927 10.8461 71.8711 12.2537 71.8711C13.6206 71.8711 14.763 72.2247 15.6743 72.9387C16.7147 73.7548 17.2382 74.8972 17.2382 76.3728C17.2382 77.8281 16.7759 79.0045 15.8443 79.9021C14.9194 80.7862 13.7089 81.2282 12.2265 81.2282Z" fill="white"/>
<path d="M27.494 72.0819H27.7728C27.9564 73.8295 28.072 74.8972 28.1128 75.2916C28.2556 76.5836 28.3644 77.5833 28.4528 78.3041C28.548 79.0113 28.6772 79.9429 28.8337 81.0786L28.2148 81.0378L27.5961 81.0786C27.5145 80.2013 27.4396 79.3649 27.3716 78.5625C27.3104 77.7669 27.2356 76.978 27.1472 76.196C27.0656 75.414 26.9908 74.7816 26.9228 74.2852C26.3855 75.2508 25.9232 76.094 25.5288 76.808C25.0732 77.6513 24.6923 78.3789 24.3863 78.9909C24.0531 79.6641 23.7471 80.3101 23.4751 80.9222H23.3323L22.6115 79.4329C22.2986 78.7733 22.013 78.2089 21.7682 77.7329C21.5234 77.25 21.2174 76.6652 20.857 75.9852C20.551 75.414 20.245 74.8428 19.9458 74.2715C19.7962 75.5228 19.6534 76.7944 19.5106 78.0729C19.3678 79.3513 19.2998 80.3509 19.2998 81.0582L18.8374 81.0174L18.3613 81.0582C18.5449 79.9157 18.7898 78.2973 19.0822 76.2028C19.3814 74.0948 19.5581 72.7143 19.6193 72.0615H19.9594C20.415 72.9591 20.789 73.6867 21.0746 74.258C21.4282 74.9312 21.8431 75.7064 22.3191 76.5836C22.8427 77.5425 23.2983 78.3313 23.6723 78.9501C24.9372 76.6516 26.1952 74.3532 27.46 72.0547L27.494 72.0819ZM30.7445 81.0922V72.0955L31.3225 72.1363L31.9005 72.0955V81.0922L31.3225 81.0513L30.7445 81.0922ZM42.094 72.0819V81.0786H41.6997L41.0128 80.2761L35.3279 73.9859H35.1986V81.0786L34.8314 81.0378L34.4642 81.0786V72.0819H34.9743L41.2236 78.8549H41.3528V72.0819L41.72 72.1227L42.094 72.0819ZM44.5625 81.0922V72.0955H49.2343L49.1934 72.4899L49.2343 72.8843C48.969 72.8299 48.7583 72.7959 48.5883 72.7755C48.4183 72.7483 48.2414 72.7347 48.051 72.7347L46.7385 72.7075H45.7253V76.0056H47.7654C47.9286 76.0056 48.1531 75.9988 48.4251 75.9784C48.7039 75.9512 48.8739 75.9376 48.9351 75.9376L48.8942 76.2776L48.9351 76.6448C48.7787 76.6448 48.561 76.638 48.2754 76.6176C47.9966 76.5904 47.8266 76.5768 47.7654 76.5768H45.7253V81.0786L45.1473 81.0378L44.5625 81.0922Z" fill="white"/>
<path d="M59.081 76.4748C59.081 75.8764 59.0266 75.3528 58.911 74.8972C58.7954 74.4348 58.5778 73.9928 58.2514 73.5847C57.9249 73.1699 57.5237 72.8571 57.0409 72.6395C56.5649 72.4219 56.0617 72.3131 55.5177 72.3131C54.3684 72.3131 53.464 72.7143 52.7976 73.5235C52.138 74.3192 51.8116 75.3936 51.8116 76.7332C51.8116 78.0253 52.1651 79.0385 52.8656 79.7729C53.5252 80.4598 54.3684 80.7998 55.402 80.7998C56.6397 80.7998 57.5986 80.2625 58.2854 79.1949C58.8158 78.3517 59.081 77.4541 59.081 76.4748ZM55.3613 81.2282C53.8992 81.2282 52.7227 80.8066 51.8319 79.9633C50.9547 79.1133 50.5195 77.9777 50.5195 76.57C50.5195 75.1556 50.9887 74.0132 51.9271 73.1359C52.8316 72.2927 53.9809 71.8711 55.3885 71.8711C56.7553 71.8711 57.8977 72.2247 58.8089 72.9387C59.8494 73.7548 60.373 74.8972 60.373 76.3728C60.373 77.8281 59.9106 79.0045 58.9789 79.9021C58.0473 80.7862 56.8437 81.2282 55.3613 81.2282Z" fill="white"/>
<path d="M6.45342 72.082L3.46813 74.9517L2.35288 76.0805C3.41372 77.2909 4.48136 78.4946 5.54899 79.6982L6.61662 81.0107V81.0787L5.8958 81.0379L5.16137 81.0787C5.01857 80.8747 4.86898 80.6775 4.71258 80.4734C4.56297 80.2626 4.40653 80.0654 4.25013 79.875L1.38046 76.5225C1.33966 76.4885 1.27846 76.4681 1.21046 76.4545C1.17645 76.4613 1.15604 76.4749 1.15604 76.4817V81.0719L0.578042 81.0311L0 81.0719V72.0752L0.578042 72.116L1.15604 72.0752V76.1417C1.16284 76.1757 1.20363 76.1825 1.27163 76.1689C1.35324 76.1485 1.42805 76.1145 1.49605 76.0601C1.56405 75.9989 1.71367 75.8629 1.93128 75.6521C2.01288 75.5705 2.09448 75.4957 2.18288 75.4141L5.41978 72.0752L5.94341 72.116L6.45342 72.082Z" fill="white"/>
<path d="M86 70.6065V25.6572H99.8928C105.136 25.6572 109.08 26.6093 111.752 28.5269C114.432 30.4378 115.771 33.2803 115.771 37.0476C115.771 39.346 115.159 41.2909 113.942 42.8889C112.711 44.5006 110.875 45.7382 108.407 46.6222C111.147 47.2479 113.282 48.5195 114.84 50.4508C116.397 52.3888 117.172 54.7485 117.172 57.5298C117.172 61.8479 115.574 65.1052 112.378 67.3085C109.182 69.5117 104.456 70.6133 98.186 70.6133L86 70.6065ZM95.7787 43.4329H99.342C101.45 43.4329 103.089 42.9705 104.286 42.0457C105.469 41.1277 106.067 39.822 106.067 38.1492C106.067 36.4627 105.503 35.2387 104.374 34.4567C103.252 33.6611 101.498 33.2734 99.0972 33.2734H95.7855V43.4329H95.7787ZM95.7787 62.4803H100.246C102.389 62.4803 104.075 61.9499 105.306 60.9027C106.537 59.8418 107.149 58.407 107.149 56.5641C107.149 54.7621 106.543 53.3748 105.347 52.3956C104.157 51.4096 102.45 50.9268 100.246 50.9268H95.7787V62.4803Z" fill="white"/>
<path d="M165.072 70.6065V25.6572H175.674V45.2214L190.519 25.6572H203.289L186.337 47.0439L204.622 70.6065H191.675L175.674 49.8999V70.6065H165.072Z" fill="white"/>
<path d="M214.355 70.6065V35.0551H199.891L207.344 25.6572H236.435V35.0551H225.085V70.6065H214.355Z" fill="white"/>
<path d="M250 25.6572H239.27V70.6065H250V25.6572Z" fill="white"/>
<path d="M162.345 70.6065H151.539L139.415 46.0986L127.29 70.6065H116.484L139.415 24.2632L162.345 70.6065Z" fill="white"/>
<path d="M139.416 14.2534V18.5307C143.353 18.5307 146.543 21.72 146.543 25.6574H150.82C150.82 19.3604 145.713 14.2534 139.416 14.2534Z" fill="white"/>
<path d="M139.415 11.4038C147.29 11.4038 153.669 17.7824 153.669 25.657H157.946C157.946 15.4227 149.65 7.12646 139.415 7.12646C129.181 7.12646 120.885 15.4227 120.885 25.657H125.162C125.162 17.7824 131.547 11.4038 139.415 11.4038Z" fill="white"/>
<path d="M139.416 0C153.588 0 165.073 11.4855 165.073 25.6572H160.796C160.796 13.852 151.221 4.27733 139.416 4.27733V0Z" fill="white"/>
</svg>
