<svg width="250" height="83" viewBox="0 0 250 83" fill="none" xmlns="http://www.w3.org/2000/svg">
<path d="M30.9478 60.6899C30.9478 60.6899 31.8794 61.5536 31.7094 62.0432C31.315 63.1652 29.5469 63.6888 28.3977 63.376C26.5616 62.8796 24.8888 60.7715 24.9024 58.8743C24.9296 56.0862 27.7789 53.8285 30.1454 52.3529C32.5799 50.8364 35.6807 50.4216 38.5504 50.4692C41.6717 50.5236 45.0106 51.1153 47.6287 52.8221C49.0839 53.7741 50.2875 55.277 50.852 56.9226C51.1716 57.8543 50.852 59.8807 50.852 59.8807C50.852 59.8807 53.4224 56.3378 54.3473 54.3657C55.4557 52.0197 57.0809 49.5444 56.7681 46.9739C56.6253 45.7975 55.8433 44.6483 54.8845 43.9478C51.804 41.7038 47.6015 41.3162 43.7933 41.1938C39.856 41.0646 35.8575 41.901 32.165 43.2746C29.6489 44.213 27.1872 45.5323 25.2424 47.3751C23.0459 49.4492 20.9447 51.9789 20.2035 54.903C19.7207 56.8002 19.8226 59.0239 20.7407 60.7511C21.5703 62.3152 23.2023 63.4508 24.8412 64.1104C26.446 64.7565 28.3705 65.0489 30.0161 64.5116C31.1042 64.158 32.6002 63.4372 32.641 62.2948C32.6818 60.6219 30.9478 60.6899 30.9478 60.6899Z" fill="white"/>
<path d="M30.0365 61.6834C30.0365 61.6834 29.7917 60.9354 30.0025 60.6634C30.3425 60.2282 31.0973 60.1126 31.6209 60.303C32.369 60.5886 33.0422 61.4386 33.0422 62.2343C33.0422 63.2611 32.1446 64.2539 31.2266 64.7231C29.2273 65.7364 26.6228 65.4507 24.5011 64.7231C22.7059 64.1043 20.9446 62.8735 19.9994 61.2278C18.6258 58.8342 18.3062 55.7129 18.925 53.0268C19.5574 50.2795 21.5975 47.981 23.5627 45.9682C25.6776 43.7989 28.2344 41.9629 31.0225 40.7932C34.2186 39.4536 37.7819 39.0932 41.2432 38.8416C44.2217 38.6308 47.2546 38.692 50.1855 39.2428C52.0216 39.5896 53.8848 40.1064 55.4964 41.0584C56.1288 41.4324 57.1353 42.5409 57.1353 42.5409C57.1353 42.5409 56.6933 36.8831 55.8296 34.2038C55.0816 31.885 54.2928 29.3689 52.5384 27.6824C51.2939 26.4856 49.519 25.894 47.8326 25.5336C44.6297 24.8468 41.2364 25.0168 38.0199 25.5948C34.2594 26.2748 30.6282 27.7368 27.2553 29.5457C24.1 31.2321 21.1282 33.3606 18.5917 35.8835C16.5109 37.9507 14.5524 40.2696 13.3488 42.9421C12.1384 45.635 11.5128 48.6611 11.5332 51.6123C11.5468 53.9788 12.0363 56.4133 13.0768 58.5349C14.0492 60.5206 15.6133 62.2274 17.3134 63.6419C18.7958 64.8727 20.5366 65.8316 22.3523 66.4572C24.0659 67.042 25.9224 67.3752 27.7312 67.2732C29.8461 67.1508 32.2602 66.9876 33.8786 65.614C34.8239 64.8115 35.5039 63.4583 35.4087 62.2274C35.3407 61.3638 34.7218 60.507 33.9806 60.0446C33.1714 59.5414 32.0698 59.2354 31.1518 59.4802C30.3017 59.7114 29.5877 60.167 29.4789 60.8742C29.4245 61.221 30.0433 61.6834 30.0365 61.6834Z" fill="white"/>
<path d="M30.322 62.2816C30.322 62.2816 29.0164 62.0164 28.6764 61.5336C28.1868 60.8264 28.2208 59.8335 28.7036 59.1263C29.4925 57.9567 31.1789 57.5079 32.5865 57.4535C34.9666 57.3583 37.8771 57.8751 39.3663 59.7383C40.6039 61.2956 40.8556 63.9001 39.9579 65.6749C39.0535 67.4566 36.7143 68.1502 34.7966 68.7214C31.8045 69.619 28.52 69.6666 25.4327 69.177C22.2434 68.6738 19.129 67.4362 16.3749 65.7497C13.3352 63.8933 10.5539 61.4656 8.45943 58.5891C6.20857 55.5086 4.52887 51.8909 3.74005 48.1644C3.02603 44.7847 3.12126 41.1942 3.81488 37.8077C4.60371 33.9724 6.1337 30.3275 8.30976 27.0702C9.96901 24.5949 12.1995 22.48 14.6272 20.7528C16.81 19.2023 19.3193 18.1075 21.8626 17.2507C23.9231 16.5571 26.0855 16.0742 28.2616 15.9586C30.9613 15.8158 33.695 16.1355 36.3334 16.7203C38.5435 17.2099 40.7263 17.9443 42.7324 19.0051C45.092 20.2564 49.2062 23.7245 49.2062 23.7245C49.2062 23.7245 40.8691 22.9288 36.7958 23.6497C31.9949 24.4997 27.2552 26.2201 23.0935 28.7498C19.9926 30.6335 17.2588 33.1972 15.0216 36.06C13.2331 38.3517 11.8119 40.9834 10.9143 43.7511C10.0031 46.5595 9.52023 49.5652 9.69703 52.5097C9.81944 54.5022 10.3362 56.5082 11.2203 58.2967C12.0975 60.0851 13.3827 61.7036 14.872 63.016C16.8168 64.7161 19.0609 66.0353 21.4954 66.8989C23.4538 67.5926 25.5823 67.8374 27.6632 67.8102C29.438 67.7898 31.3353 67.7082 32.9197 66.8989C34.2458 66.2189 35.667 65.1989 36.1158 63.7777C36.483 62.6216 36.2586 61.1188 35.4698 60.2007C34.6878 59.2963 33.2665 59.0583 32.0697 59.0583C31.1925 59.0583 30.2064 59.2895 29.574 59.8947C29.2204 60.2348 29.0368 60.67 29.166 61.1392C29.2816 61.6696 30.322 62.2884 30.322 62.2816Z" fill="white"/>
<path d="M15.9533 77.3508C15.9533 76.7524 15.8989 76.2288 15.7833 75.7732C15.6677 75.3108 15.4501 74.8687 15.1236 74.4607C14.7972 74.0459 14.3961 73.7331 13.9133 73.5155C13.4373 73.2979 12.934 73.1891 12.3899 73.1891C11.2407 73.1891 10.3363 73.5903 9.66987 74.3995C9.01025 75.1951 8.68387 76.2696 8.68387 77.6092C8.68387 78.9013 9.03751 79.9145 9.73794 80.6489C10.3976 81.3357 11.2408 81.6757 12.2744 81.6757C13.512 81.6757 14.4709 81.1385 15.1577 80.0709C15.6813 79.2277 15.9533 78.33 15.9533 77.3508ZM12.2267 82.1042C10.7647 82.1042 9.58831 81.6825 8.69748 80.8393C7.82026 79.9893 7.38501 78.8537 7.38501 77.446C7.38501 76.0316 7.85427 74.8891 8.7927 74.0119C9.69712 73.1687 10.8463 72.7471 12.254 72.7471C13.6208 72.7471 14.7633 73.1007 15.6745 73.8147C16.7149 74.6307 17.2385 75.7732 17.2385 77.2488C17.2385 78.7041 16.7761 79.8805 15.8445 80.7781C14.9197 81.6621 13.7092 82.1042 12.2267 82.1042Z" fill="white"/>
<path d="M27.4933 72.9579H27.772C27.9557 74.7055 28.0713 75.7731 28.1121 76.1676C28.2549 77.4596 28.3637 78.4592 28.4521 79.18C28.5473 79.8873 28.6765 80.8189 28.8329 81.9545L28.2141 81.9137L27.5953 81.9545C27.5137 81.0773 27.4389 80.2409 27.3709 79.4385C27.3097 78.6428 27.2349 77.854 27.1465 77.072C27.0649 76.29 26.99 75.6575 26.922 75.1611C26.3848 76.1268 25.9224 76.97 25.528 77.684C25.0724 78.5272 24.6916 79.2548 24.3856 79.8669C24.0524 80.5401 23.7464 81.1861 23.4744 81.7981H23.3316L22.6107 80.3089C22.2979 79.6493 22.0123 79.0848 21.7675 78.6088C21.5227 78.126 21.2167 77.5412 20.8563 76.8612C20.5503 76.29 20.2443 75.7187 19.9451 75.1475C19.7955 76.3988 19.6527 77.6704 19.5099 78.9488C19.3671 80.2273 19.299 81.2269 19.299 81.9341L18.8367 81.8933L18.3606 81.9341C18.5442 80.7917 18.789 79.1733 19.0815 77.0788C19.3807 74.9707 19.5574 73.5903 19.6186 72.9375H19.9586C20.4142 73.8351 20.7883 74.5627 21.0739 75.1339C21.4275 75.8072 21.8423 76.5824 22.3184 77.4596C22.842 78.4184 23.2976 79.2072 23.6716 79.8261C24.9364 77.5276 26.1944 75.2291 27.4593 72.9307L27.4933 72.9579ZM30.7438 81.9681V72.9715L31.3218 73.0123L31.8998 72.9715V81.9681L31.3218 81.9273L30.7438 81.9681ZM42.0933 72.9579V81.9545H41.6989L41.0121 81.1521L35.3271 74.8619H35.1979V81.9545L34.8307 81.9137L34.4635 81.9545V72.9579H34.9735L41.2229 79.7309H41.3521V72.9579L41.7193 72.9987L42.0933 72.9579ZM44.5618 81.9681V72.9715H49.2335L49.1927 73.3659L49.2335 73.7603C48.9683 73.7059 48.7575 73.6719 48.5875 73.6515C48.4175 73.6243 48.2407 73.6107 48.0503 73.6107L46.7378 73.5835H45.7246V76.8816H47.7647C47.9279 76.8816 48.1523 76.8748 48.4243 76.8544C48.7031 76.8272 48.8731 76.8136 48.9344 76.8136L48.8935 77.1536L48.9344 77.5208C48.7779 77.5208 48.5603 77.514 48.2747 77.4936C47.9959 77.4664 47.8259 77.4528 47.7647 77.4528H45.7246V81.9545L45.1466 81.9137L44.5618 81.9681Z" fill="white"/>
<path d="M59.0801 77.3508C59.0801 76.7524 59.0257 76.2288 58.9101 75.7732C58.7945 75.3108 58.5769 74.8687 58.2505 74.4607C57.9241 74.0459 57.5229 73.7331 57.04 73.5155C56.564 73.2979 56.0608 73.1891 55.5168 73.1891C54.3676 73.1891 53.4631 73.5903 52.7967 74.3995C52.1371 75.1951 51.8107 76.2696 51.8107 77.6092C51.8107 78.9013 52.1643 79.9145 52.8647 80.6489C53.5243 81.3357 54.3675 81.6757 55.4012 81.6757C56.6388 81.6757 57.5977 81.1385 58.2845 80.0709C58.8149 79.2277 59.0801 78.33 59.0801 77.3508ZM55.3604 82.1042C53.8984 82.1042 52.7219 81.6825 51.8311 80.8393C50.9538 79.9893 50.5187 78.8537 50.5187 77.446C50.5187 76.0316 50.9879 74.8891 51.9263 74.0119C52.8307 73.1687 53.98 72.7471 55.3876 72.7471C56.7545 72.7471 57.8969 73.1007 58.8081 73.8147C59.8485 74.6307 60.3722 75.7732 60.3722 77.2488C60.3722 78.7041 59.9097 79.8805 58.9781 80.7781C58.0465 81.6621 56.8429 82.1042 55.3604 82.1042Z" fill="white"/>
<path d="M6.45342 72.958L3.46813 75.8277L2.35288 76.9565C3.41372 78.1669 4.48136 79.3706 5.54899 80.5742L6.61662 81.8866V81.9546L5.8958 81.9138L5.16137 81.9546C5.01857 81.7506 4.86898 81.5534 4.71258 81.3494C4.56297 81.1386 4.40653 80.9414 4.25013 80.751L1.38046 77.3985C1.33966 77.3645 1.27846 77.3441 1.21046 77.3305C1.17645 77.3373 1.15604 77.3509 1.15604 77.3577V81.9478L0.578042 81.907L0 81.9478V72.9512L0.578042 72.992L1.15604 72.9512V77.0177C1.16284 77.0517 1.20363 77.0585 1.27163 77.0449C1.35324 77.0245 1.42805 76.9905 1.49605 76.9361C1.56405 76.8749 1.71367 76.7389 1.93128 76.5281C2.01288 76.4465 2.09448 76.3717 2.18288 76.2901L5.41978 72.9512L5.94341 72.992L6.45342 72.958Z" fill="white"/>
<path d="M86 71.4825V26.5332H99.8928C105.136 26.5332 109.08 27.4852 111.752 29.4029C114.432 31.3137 115.771 34.1562 115.771 37.9235C115.771 40.222 115.159 42.1669 113.942 43.7649C112.711 45.3766 110.875 46.6142 108.407 47.4982C111.147 48.1238 113.282 49.3955 114.84 51.3267C116.397 53.2648 117.172 55.6245 117.172 58.4057C117.172 62.7239 115.574 65.9812 112.378 68.1844C109.182 70.3877 104.456 71.4893 98.186 71.4893L86 71.4825ZM95.7787 44.3089H99.342C101.45 44.3089 103.089 43.8465 104.286 42.9217C105.469 42.0037 106.067 40.698 106.067 39.0252C106.067 37.3387 105.503 36.1147 104.374 35.3327C103.252 34.537 101.498 34.1494 99.0972 34.1494H95.7855V44.3089H95.7787ZM95.7787 63.3563H100.246C102.389 63.3563 104.075 62.8259 105.306 61.7786C106.537 60.7178 107.149 59.283 107.149 57.4401C107.149 55.6381 106.543 54.2508 105.347 53.2716C104.157 52.2856 102.45 51.8027 100.246 51.8027H95.7787V63.3563Z" fill="white"/>
<path d="M165.073 71.4825V26.5332H175.674V46.0974L190.519 26.5332H203.29L186.337 47.9198L204.623 71.4825H191.675L175.674 50.7759V71.4825H165.073Z" fill="white"/>
<path d="M214.354 71.4825V35.9311H199.89L207.343 26.5332H236.434V35.9311H225.085V71.4825H214.354Z" fill="white"/>
<path d="M250.001 26.5332H239.27V71.4825H250.001V26.5332Z" fill="white"/>
<path d="M162.346 71.482H151.54L139.416 46.9741L127.291 71.482H116.485L139.416 25.1387L162.346 71.482Z" fill="white"/>
<path d="M139.416 15.1289V19.4062C143.353 19.4062 146.542 22.5955 146.542 26.5328H150.82C150.82 20.2359 145.713 15.1289 139.416 15.1289Z" fill="white"/>
<path d="M139.416 12.2803C147.29 12.2803 153.669 18.6588 153.669 26.5335H157.946C157.946 16.2992 149.65 8.00293 139.416 8.00293C129.181 8.00293 120.885 16.2992 120.885 26.5335H125.162C125.162 18.6588 131.548 12.2803 139.416 12.2803Z" fill="white"/>
<path d="M139.416 0.875977C153.587 0.875977 165.073 12.3615 165.073 26.5331H160.795C160.795 14.728 151.221 5.1533 139.416 5.1533V0.875977Z" fill="white"/>
</svg>
